<svg width="34" height="40" viewBox="0 0 34 40" fill="none" xmlns="http://www.w3.org/2000/svg">
<mask id="mask0" mask-type="alpha" maskUnits="userSpaceOnUse" x="0" y="0" width="34" height="40">
<rect width="34" height="40" fill="#C4C4C4"/>
</mask>
<g mask="url(#mask0)">
<path d="M3.77136 18.9773C3.48281 19.6252 3.48281 20.3748 3.77136 21.0227L2.00005 20L3.77136 18.9773Z" stroke="#BB2C2C" stroke-width="3"/>
<mask id="path-3-inside-1" fill="white">
<path d="M33.4586 8.25L16.3205 19.9235C15.7377 20.3204 15.7377 21.1796 16.3205 21.5765L33.4586 33.25L13.308 21.616C12.6413 21.2311 12.6413 20.2689 13.308 19.884L33.4586 8.25Z"/>
</mask>
<path d="M33.4586 8.25L35.1475 10.7295L31.9586 5.65192L33.4586 8.25ZM33.4586 33.25L31.9586 35.8481L35.1475 30.7705L33.4586 33.25ZM16.3205 21.5765L18.0093 19.097L16.3205 21.5765ZM34.9586 30.6519L14.808 19.0179L11.808 24.2141L31.9586 35.8481L34.9586 30.6519ZM14.808 22.4821L34.9586 10.8481L31.9586 5.65192L11.808 17.2859L14.808 22.4821ZM31.7698 5.77054L14.6316 17.4441L18.0093 22.403L35.1475 10.7295L31.7698 5.77054ZM14.6316 24.056L31.7698 35.7295L35.1475 30.7705L18.0093 19.097L14.6316 24.056ZM14.6316 17.4441C12.3007 19.0317 12.3007 22.4683 14.6316 24.056L18.0093 19.097C19.1748 19.8909 19.1748 21.6091 18.0093 22.403L14.6316 17.4441ZM14.808 19.0179C16.1413 19.7878 16.1413 21.7123 14.808 22.4821L11.808 17.2859C9.14132 18.8255 9.14131 22.6745 11.808 24.2141L14.808 19.0179Z" fill="#BB2C2C" mask="url(#path-3-inside-1)"/>
</g>
</svg>
