<svg width="210" height="257" viewBox="0 0 210 257" fill="none" xmlns="http://www.w3.org/2000/svg">
    <path
        d="M199.272 23.627H186.802L183.339 6.86329C182.575 3.17579 179.284 0.5 175.513 0.5H34.5441C30.7711 0.5 27.4795 3.17579 26.7182 6.86329L23.2525 23.627H10.7828C5.27596 23.627 0.796509 28.0977 0.796509 33.5938V50.0724C0.796509 55.5685 5.27596 60.0411 10.7828 60.0411H15.683L18.4599 79.5158C17.6184 80.0002 16.8513 80.6193 16.1996 81.3674C14.5323 83.2873 13.7809 85.8303 14.139 88.3478L32.6771 218.342C33.1879 221.928 35.8865 224.772 39.2955 225.612L41.9335 244.12C42.9413 251.178 49.0861 256.501 56.229 256.501H153.828C160.971 256.501 167.115 251.178 168.123 244.12L170.761 225.612C174.17 224.772 176.869 221.928 177.38 218.342L195.918 88.3478C196.276 85.8303 195.524 83.2873 193.857 81.3674C193.206 80.6193 192.438 80.0002 191.595 79.5158L194.374 60.0411H199.274C204.781 60.0411 209.26 55.5685 209.26 50.0724V33.5938C209.258 28.0977 204.779 23.627 199.272 23.627ZM188.47 87.2892L169.932 217.284C169.843 217.901 169.307 218.364 168.685 218.364H132.691C130.615 218.364 128.932 220.043 128.932 222.118C128.932 224.192 130.615 225.872 132.691 225.872H163.127L160.675 243.063C160.192 246.444 157.249 248.995 153.826 248.995H56.229C52.8063 248.995 49.863 246.444 49.3797 243.063L46.9296 225.872H115.19C117.268 225.872 118.951 224.192 118.951 222.118C118.951 220.043 117.268 218.364 115.19 218.364H41.3699C40.7476 218.364 40.2114 217.901 40.1233 217.284L21.5852 87.2892C21.5147 86.7951 21.7398 86.4494 21.8807 86.2873C22.0157 86.133 22.3092 85.8869 22.7672 85.8635C22.818 85.8615 22.867 85.8576 22.9198 85.8537H187.135C187.186 85.8576 187.237 85.8615 187.288 85.8635C187.746 85.8869 188.039 86.133 188.174 86.2873C188.315 86.4494 188.54 86.7951 188.47 87.2892ZM23.2818 60.0411H186.775L184.164 78.3478H25.8924L23.2818 60.0411ZM201.738 50.0724C201.738 51.4298 200.632 52.5333 199.272 52.5333H10.7828C9.42469 52.5333 8.31706 51.4298 8.31706 50.0724V33.5938C8.31706 32.2364 9.42469 31.1329 10.7828 31.1329H44.4364C46.5128 31.1329 48.1957 29.4532 48.1957 27.379C48.1957 25.3067 46.5128 23.627 44.4364 23.627H30.9335L34.0842 8.38088C34.1292 8.16408 34.3229 8.00587 34.5441 8.00587H175.513C175.734 8.00587 175.928 8.16408 175.973 8.38088L179.123 23.627H61.9374C59.8591 23.627 58.1762 25.3067 58.1762 27.379C58.1762 29.4532 59.8591 31.1329 61.9374 31.1329H199.272C200.632 31.1329 201.738 32.2364 201.738 33.5938V50.0724Z"
        fill="url(#paint0_linear)" />
    <path
        d="M133.317 121.211C133.292 121.186 133.264 121.162 133.237 121.137C120.736 108.789 97.9629 111.352 82.3953 126.891C74.955 134.315 70.2114 143.594 69.0372 153.02C67.818 162.793 70.548 171.569 76.7222 177.731C76.7222 177.733 76.7241 177.733 76.7261 177.735C76.7359 177.745 76.7456 177.754 76.7554 177.762C81.9648 182.944 89.0274 185.684 96.9824 185.684C98.4521 185.684 99.955 185.588 101.479 185.401C110.924 184.229 120.221 179.493 127.661 172.069C143.268 156.491 145.814 133.684 133.335 121.229C133.329 121.221 133.323 121.217 133.317 121.211ZM76.501 153.946C77.4697 146.17 81.4521 138.448 87.7124 132.198C95.2134 124.711 104.605 120.766 113.002 120.766C116.861 120.766 120.507 121.604 123.665 123.311C117.35 127.055 107.544 134.42 104.562 145.336C101.967 154.826 87.8885 165.34 80.1625 170.215C77.0157 165.901 75.7163 160.237 76.501 153.946ZM122.343 166.76C116.08 173.01 108.343 176.983 100.552 177.95C95.049 178.633 90.0235 177.733 85.959 175.405C93.7143 170.295 108.57 159.198 111.818 147.311C114.47 137.602 124.951 131.065 129.738 128.524C137.182 138.414 134.184 154.94 122.343 166.76Z"
        fill="url(#paint1_linear)" />
    <defs>
        <linearGradient id="paint0_linear" x1="105.028" y1="0.5" x2="105.028" y2="256.501"
            gradientUnits="userSpaceOnUse">
            <stop stop-color="#FF0000" />
            <stop offset="1" stop-color="#FFF500" />
        </linearGradient>
        <linearGradient id="paint1_linear" x1="105.004" y1="113.325" x2="105.004" y2="185.684"
            gradientUnits="userSpaceOnUse">
            <stop stop-color="#FF0000" />
            <stop offset="1" stop-color="#FFF500" />
        </linearGradient>
    </defs>
</svg>