<svg width="100" height="100" viewBox="0 0 100 100" fill="none" xmlns="http://www.w3.org/2000/svg">
<rect width="100" height="100" rx="10" fill="white"/>
<ellipse cx="50.0865" cy="49.5" rx="29.0865" ry="27.5" fill="black"/>
<path d="M51.1954 66.48C47.7554 66.48 44.6554 65.78 41.8954 64.38C39.1754 62.94 37.0354 60.96 35.4754 58.44C33.9554 55.92 33.1954 53.06 33.1954 49.86C33.1954 46.66 33.9554 43.8 35.4754 41.28C37.0354 38.76 39.1754 36.8 41.8954 35.4C44.6554 33.96 47.7554 33.24 51.1954 33.24C54.5954 33.24 57.5554 33.96 60.0754 35.4C62.6354 36.8 64.4954 38.82 65.6554 41.46L58.3954 45.36C56.7154 42.4 54.2954 40.92 51.1354 40.92C48.6954 40.92 46.6754 41.72 45.0754 43.32C43.4754 44.92 42.6754 47.1 42.6754 49.86C42.6754 52.62 43.4754 54.8 45.0754 56.4C46.6754 58 48.6954 58.8 51.1354 58.8C54.3354 58.8 56.7554 57.32 58.3954 54.36L65.6554 58.32C64.4954 60.88 62.6354 62.88 60.0754 64.32C57.5554 65.76 54.5954 66.48 51.1954 66.48Z" fill="white"/>
</svg>
