<svg width="34" height="38" viewBox="0 0 34 38" fill="none" xmlns="http://www.w3.org/2000/svg">
<g filter="url(#filter0_d)">
<path d="M16.7861 14.4511C18.7714 14.4511 20.4903 13.7391 21.8952 12.3342C23.2996 10.9295 24.0119 9.21087 24.0119 7.22533C24.0119 5.24047 23.2998 3.52157 21.895 2.11647C20.4901 0.71205 18.7712 0 16.7861 0C14.8006 0 13.0819 0.71205 11.6772 2.1167C10.2726 3.52134 9.5603 5.24024 9.5603 7.22533C9.5603 9.21087 10.2726 10.9298 11.6772 12.3344C13.0823 13.7388 14.8012 14.4511 16.7861 14.4511V14.4511ZM12.9205 3.35975C13.9983 2.28195 15.2627 1.75804 16.7861 1.75804C18.3093 1.75804 19.5739 2.28195 20.6519 3.35975C21.7297 4.43778 22.2539 5.70235 22.2539 7.22533C22.2539 8.74876 21.7297 10.0131 20.6519 11.0911C19.5739 12.1692 18.3093 12.6931 16.7861 12.6931C15.2631 12.6931 13.9988 12.1689 12.9205 11.0911C11.8425 10.0133 11.3183 8.74876 11.3183 7.22533C11.3183 5.70235 11.8425 4.43778 12.9205 3.35975Z" fill="url(#paint0_linear)"/>
<path d="M29.4294 23.0685C29.3889 22.4839 29.307 21.8463 29.1864 21.1729C29.0646 20.4945 28.9078 19.8532 28.7201 19.267C28.526 18.6612 28.2626 18.0629 27.9364 17.4895C27.5984 16.8944 27.201 16.3762 26.7552 15.9498C26.2889 15.5037 25.7181 15.1451 25.058 14.8835C24.4002 14.6232 23.6712 14.4914 22.8914 14.4914C22.5852 14.4914 22.289 14.6171 21.717 14.9894C21.365 15.219 20.9532 15.4845 20.4937 15.7782C20.1007 16.0286 19.5683 16.2632 18.9107 16.4756C18.2691 16.6832 17.6178 16.7884 16.9746 16.7884C16.3319 16.7884 15.6805 16.6832 15.0385 16.4756C14.3816 16.2634 13.849 16.0288 13.4567 15.7784C13.0014 15.4875 12.5894 15.222 12.2322 14.9892C11.6606 14.6168 11.3645 14.4912 11.0582 14.4912C10.2782 14.4912 9.54944 14.6232 8.89186 14.8837C8.23222 15.1449 7.66116 15.5035 7.19447 15.9501C6.74861 16.3767 6.35127 16.8946 6.01344 17.4895C5.68774 18.0629 5.42407 18.6609 5.22998 19.2672C5.04253 19.8534 4.88574 20.4945 4.76398 21.1729C4.64313 21.8454 4.56142 22.4832 4.5209 23.0692C4.48108 23.6421 4.46094 24.2383 4.46094 24.8407C4.46094 26.4067 4.95876 27.6745 5.94043 28.6095C6.90997 29.5321 8.19263 29.9999 9.75291 29.9999H24.1981C25.7579 29.9999 27.0406 29.5321 28.0104 28.6095C28.9923 27.6752 29.4901 26.407 29.4901 24.8405C29.4899 24.236 29.4695 23.6398 29.4294 23.0685V23.0685ZM26.7982 27.3358C26.1576 27.9455 25.307 28.2419 24.1979 28.2419H9.75291C8.64352 28.2419 7.793 27.9455 7.15259 27.336C6.52431 26.7379 6.21898 25.9215 6.21898 24.8407C6.21898 24.2786 6.23752 23.7236 6.2746 23.1907C6.31076 22.668 6.38469 22.0937 6.49432 21.4835C6.60258 20.8808 6.74037 20.3153 6.90425 19.8033C7.06149 19.3123 7.27596 18.8262 7.54192 18.3579C7.79575 17.9116 8.0878 17.5287 8.41006 17.2201C8.7115 16.9315 9.09145 16.6953 9.53914 16.5181C9.95319 16.3543 10.4185 16.2645 10.9236 16.251C10.9852 16.2838 11.0948 16.3462 11.2725 16.4621C11.6339 16.6976 12.0504 16.9663 12.5109 17.2604C13.03 17.5914 13.6988 17.8903 14.4979 18.1482C15.3147 18.4124 16.1479 18.5465 16.9748 18.5465C17.8018 18.5465 18.6351 18.4124 19.4516 18.1485C20.2513 17.8901 20.9198 17.5914 21.4396 17.2599C21.9109 16.9587 22.3158 16.6978 22.6772 16.4621C22.8548 16.3465 22.9644 16.2838 23.026 16.251C23.5314 16.2645 23.9967 16.3543 24.411 16.5181C24.8584 16.6953 25.2384 16.9317 25.5398 17.2201C25.8621 17.5284 26.1541 17.9113 26.408 18.3581C26.6741 18.8262 26.8888 19.3126 27.0459 19.803C27.21 20.3157 27.348 20.8811 27.456 21.4833C27.5654 22.0946 27.6396 22.6691 27.6757 23.1909V23.1914C27.713 23.7222 27.7318 24.277 27.732 24.8407C27.7318 25.9217 27.4265 26.7379 26.7982 27.3358V27.3358Z" fill="url(#paint1_linear)"/>
</g>
<defs>
<filter id="filter0_d" x="-2" y="0" width="38" height="38" filterUnits="userSpaceOnUse" color-interpolation-filters="sRGB">
<feFlood flood-opacity="0" result="BackgroundImageFix"/>
<feColorMatrix in="SourceAlpha" type="matrix" values="0 0 0 0 0 0 0 0 0 0 0 0 0 0 0 0 0 0 127 0"/>
<feOffset dy="4"/>
<feGaussianBlur stdDeviation="2"/>
<feColorMatrix type="matrix" values="0 0 0 0 0 0 0 0 0 0 0 0 0 0 0 0 0 0 0.25 0"/>
<feBlend mode="normal" in2="BackgroundImageFix" result="effect1_dropShadow"/>
<feBlend mode="normal" in="SourceGraphic" in2="effect1_dropShadow" result="shape"/>
</filter>
<linearGradient id="paint0_linear" x1="16.7861" y1="0" x2="16.7861" y2="14.4511" gradientUnits="userSpaceOnUse">
<stop stop-color="#FF0000"/>
<stop offset="0.9999" stop-color="#FFB800"/>
<stop offset="1" stop-color="white" stop-opacity="0"/>
</linearGradient>
<linearGradient id="paint1_linear" x1="16.9755" y1="14.4912" x2="16.9755" y2="29.9999" gradientUnits="userSpaceOnUse">
<stop stop-color="#FF0000"/>
<stop offset="0.9999" stop-color="#FFB800"/>
<stop offset="1" stop-color="white" stop-opacity="0"/>
</linearGradient>
</defs>
</svg>
